<svg xmlns="http://www.w3.org/2000/svg" width="512" height="512" viewBox="0 0 512 512">
  <defs>
    <linearGradient id="grad1" x1="0%" y1="0%" x2="100%" y2="100%">
      <stop offset="0%" style="stop-color:#6366f1;stop-opacity:1" />
      <stop offset="100%" style="stop-color:#8b5cf6;stop-opacity:1" />
    </linearGradient>
    <linearGradient id="grad2" x1="0%" y1="0%" x2="100%" y2="100%">
      <stop offset="0%" style="stop-color:#ffffff;stop-opacity:1" />
      <stop offset="100%" style="stop-color:#f3f4f6;stop-opacity:1" />
    </linearGradient>
  </defs>
  <rect width="512" height="512" rx="128" fill="url(#grad1)"/>
  <g transform="translate(128, 128) scale(0.5)">
    <circle cx="256" cy="256" r="192" fill="url(#grad2)"/>
    <path d="M352 256c0 53-43 96-96 96s-96-43-96-96 43-96 96-96 96 43 96 96z M256 48v64 M256 400v64 M400 256h64 M48 256h64 M370.8 141.2l-45.3 45.3 M186.5 325.5l-45.3 45.3 M370.8 370.8l-45.3-45.3 M186.5 186.5l-45.3-45.3" 
      fill="none" stroke="url(#grad1)" stroke-width="32" stroke-linecap="round" stroke-linejoin="round"/>
  </g>
</svg>